<?xml version="1.0" standalone="no"?>
<!DOCTYPE svg PUBLIC "-//W3C//DTD SVG 20010904//EN"
 "http://www.w3.org/TR/2001/REC-SVG-20010904/DTD/svg10.dtd">
<svg version="1.0" xmlns="http://www.w3.org/2000/svg"
 width="1311.000000pt" height="718.000000pt" viewBox="0 0 1311.000000 718.000000"
 preserveAspectRatio="xMidYMid meet">

<g transform="translate(0.000000,718.000000) scale(0.100000,-0.100000)"
fill="#000000" stroke="none">
<path d="M0 3590 l0 -3590 6555 0 6555 0 0 3590 0 3590 -6555 0 -6555 0 0
-3590z m3143 2798 c106 -79 259 -194 342 -257 82 -62 196 -148 251 -190 121
-91 114 -68 114 -362 l0 -199 -114 0 c-63 0 -121 -3 -130 -6 -14 -5 -16 -36
-16 -235 l0 -229 178 -2 177 -3 3 -217 2 -218 168 -2 167 -3 3 -207 2 -208
-230 0 -230 0 0 -255 0 -255 150 0 150 0 2 -507 3 -508 213 -3 212 -2 0 -644
0 -644 -27 -6 c-16 -3 -170 -30 -343 -61 -310 -56 -660 -120 -1017 -189 l-181
-35 -184 35 c-100 19 -205 39 -233 44 -27 5 -207 39 -400 75 -192 36 -451 84
-575 106 -124 23 -226 42 -227 43 -2 2 -3 972 -3 2157 l-1 2154 38 26 c21 15
130 83 243 151 113 69 270 166 350 215 688 427 942 583 948 583 2 0 90 -64
195 -142z m1347 -409 l0 -149 -155 0 -155 0 0 149 c0 176 -21 158 178 153
l132 -3 0 -150z m650 -419 l0 -150 -149 0 c-83 0 -151 3 -153 8 -2 4 -2 71 0
150 l3 142 150 0 149 0 0 -150z m-664 -310 l194 0 0 -220 0 -220 -227 2 -228
3 -3 210 c-1 115 0 216 3 223 4 10 15 13 36 8 18 -3 119 -6 225 -6z m944 -449
l0 -120 -115 -3 c-64 -2 -120 -1 -125 0 -6 2 -10 54 -10 123 l0 119 125 0 125
0 0 -119z m-565 -471 l0 -125 -132 -3 -133 -3 0 124 c0 68 3 127 7 131 4 3 63
5 132 4 l126 -3 0 -125z m1191 -321 c100 -14 170 -45 218 -99 63 -70 80 -120
81 -230 0 -82 -4 -102 -26 -150 -34 -70 -99 -135 -158 -156 -52 -20 -73 -34
-49 -34 42 0 95 -79 231 -342 l76 -148 -128 0 c-91 0 -131 4 -138 13 -6 6 -39
68 -74 137 -104 206 -142 265 -184 287 -22 12 -94 17 -197 15 l-68 -2 0 -225
0 -225 -115 0 -115 0 0 585 0 585 284 0 c157 0 319 -5 362 -11z m856 4 c2 -5
2 -45 0 -90 l-4 -83 -104 0 -104 0 0 90 0 90 104 0 c58 0 106 -3 108 -7z m348
-83 l0 -90 -105 0 -105 0 0 83 c0 46 3 87 7 90 3 4 51 7 105 7 l98 0 0 -90z
m1480 -226 c0 -174 4 -314 8 -312 12 4 174 181 236 255 l51 63 129 0 128 0
-52 -57 c-29 -32 -90 -99 -136 -149 -46 -50 -84 -97 -84 -103 0 -10 226 -401
297 -513 l23 -38 -123 0 -123 0 -41 73 c-23 39 -74 132 -115 204 l-75 133 -61
-64 -62 -64 0 -141 0 -141 -110 0 -110 0 0 578 c0 318 3 582 7 585 3 4 53 7
110 7 l103 0 0 -316z m950 102 l5 -208 20 22 c30 33 95 75 138 90 61 19 174
15 242 -11 164 -61 258 -270 226 -500 -22 -161 -86 -265 -201 -328 -61 -34
-71 -36 -155 -36 -79 0 -97 3 -141 27 -28 15 -70 48 -93 74 l-41 47 0 -67 0
-67 -107 3 -108 3 -3 570 c-1 314 0 576 3 583 3 9 31 12 107 10 l103 -3 5
-209z m-4860 -186 l0 -120 -125 0 -125 0 0 120 0 120 125 0 125 0 0 -120z
m3220 99 c159 -25 267 -118 298 -256 l10 -42 -77 -6 c-42 -4 -86 -7 -99 -8
-19 -2 -26 6 -37 37 -45 130 -216 157 -315 50 -48 -52 -70 -122 -70 -224 0
-98 22 -162 71 -210 107 -103 275 -66 319 71 7 24 14 45 15 46 2 4 187 -36
192 -40 9 -10 -17 -84 -45 -128 -41 -64 -87 -105 -159 -141 -107 -53 -277 -51
-398 6 -240 111 -298 502 -106 718 67 75 188 127 321 137 8 0 44 -4 80 -10z
m2978 -14 c70 -21 130 -70 161 -130 26 -50 26 -52 32 -360 3 -199 10 -320 17
-337 l12 -28 -109 0 -109 0 -7 50 c-4 28 -9 50 -12 50 -3 0 -21 -14 -41 -31
-20 -18 -61 -44 -92 -58 -47 -22 -68 -25 -150 -25 -106 1 -146 14 -205 66 -54
47 -78 101 -79 179 0 54 5 73 28 113 46 78 157 134 301 150 76 9 214 34 226
42 12 7 12 76 -1 108 -16 43 -66 66 -140 66 -80 0 -126 -22 -153 -74 l-20 -37
-76 6 c-99 9 -111 12 -111 36 0 28 25 83 56 124 56 74 143 103 310 104 72 1
128 -4 162 -14z m-3670 -430 l2 -425 -105 0 -105 0 0 66 0 65 -50 -51 c-66
-67 -123 -92 -226 -98 -73 -4 -88 -1 -140 22 -77 35 -119 77 -146 145 -21 53
-22 74 -26 379 l-4 322 111 0 111 0 0 -283 c0 -273 1 -284 23 -327 46 -92 174
-118 254 -53 21 16 48 49 60 73 22 42 23 51 23 315 0 149 2 274 5 277 3 2 51
3 108 1 l102 -3 3 -425z m4276 429 c14 -5 16 -40 16 -284 0 -153 3 -292 6
-309 9 -44 52 -87 103 -102 88 -26 184 27 216 119 12 37 15 98 15 309 l0 263
110 0 110 0 0 -425 0 -426 -107 3 -108 3 -3 59 -3 58 -35 -40 c-19 -23 -60
-53 -92 -69 -50 -24 -69 -28 -147 -28 -106 0 -147 17 -212 88 -70 75 -75 111
-77 464 -1 259 2 305 14 313 17 11 169 14 194 4z m-6998 -611 c-3 -42 -6 -96
-6 -120 l0 -43 -120 0 -120 0 0 119 c0 140 -15 128 149 123 l104 -3 -7 -76z
m4224 -593 c47 -6 108 -18 135 -27 199 -63 355 -221 420 -424 53 -169 57 -353
10 -528 -85 -318 -327 -502 -660 -502 -177 -1 -306 40 -430 134 -120 91 -194
211 -241 392 -23 91 -25 113 -21 240 9 246 64 392 202 530 126 126 269 185
470 194 17 0 69 -4 115 -9z m-2724 -40 c226 -29 356 -154 384 -370 20 -151
-26 -299 -124 -394 -108 -106 -181 -126 -474 -133 l-222 -5 5 -254 5 -254
-150 0 -150 0 0 703 c0 387 3 707 7 710 10 10 638 8 719 -3z m1456 -23 c42
-13 92 -34 111 -46 51 -31 106 -96 136 -160 24 -51 26 -66 26 -186 0 -127 -1
-131 -33 -193 -42 -80 -98 -134 -179 -173 l-63 -30 35 -42 c20 -23 95 -158
166 -299 l129 -258 -155 0 -155 0 -125 250 c-90 179 -132 254 -152 267 -29 20
-205 36 -275 26 l-38 -6 0 -269 0 -269 -147 3 -148 3 -3 695 c-1 382 0 701 3
709 4 11 71 12 398 8 381 -5 394 -6 469 -30z"/>
<path d="M3152 5158 l3 -123 123 -3 122 -3 0 126 0 125 -125 0 -126 0 3 -122z"/>
<path d="M2420 5166 l-165 -52 -3 -247 c-1 -152 1 -247 7 -247 27 0 347 93
356 103 6 8 9 103 7 255 -2 221 -4 242 -20 241 -9 -1 -91 -25 -182 -53z"/>
<path d="M1838 4992 l-168 -57 0 -242 c0 -134 3 -243 8 -243 4 0 82 22 172 49
l165 48 3 252 c1 138 -1 251 -5 250 -5 0 -83 -26 -175 -57z"/>
<path d="M3280 4420 l0 -160 140 0 140 0 0 160 0 160 -140 0 -140 0 0 -160z"/>
<path d="M2435 4291 l-180 -46 -3 -259 c-1 -143 1 -263 5 -267 5 -4 31 -4 58
1 28 5 103 16 167 26 65 10 122 20 128 24 7 4 9 102 8 286 l-3 280 -180 -45z"/>
<path d="M1840 4156 l-165 -42 -3 -247 c-2 -194 0 -247 10 -247 7 0 86 12 176
27 l162 27 0 263 c0 145 -3 263 -7 262 -5 0 -82 -20 -173 -43z"/>
<path d="M3370 3540 l0 -170 155 0 155 0 0 170 0 170 -155 0 -155 0 0 -170z"/>
<path d="M2425 3349 c-82 -11 -156 -21 -162 -24 -10 -3 -13 -64 -13 -259 0
-140 4 -257 8 -260 5 -3 88 -2 185 1 l177 6 0 279 0 278 -22 -1 c-13 -1 -90
-10 -173 -20z"/>
<path d="M1845 3289 c-93 -10 -173 -18 -178 -19 -4 0 -6 -111 -5 -247 l3 -247
70 2 c39 1 118 5 178 8 l107 7 0 258 c0 143 -1 259 -2 258 -2 -1 -79 -9 -173
-20z"/>
<path d="M3630 2805 l0 -145 130 0 130 0 0 145 0 145 -130 0 -130 0 0 -145z"/>
<path d="M1672 2189 l3 -244 115 -12 c63 -6 141 -14 173 -17 l57 -6 0 255 0
255 -107 0 c-60 0 -138 3 -176 7 l-67 6 2 -244z"/>
<path d="M2255 2401 c-10 -9 -5 -500 5 -506 13 -8 350 -38 356 -32 5 5 7 528
2 532 -6 5 -359 11 -363 6z"/>
<path d="M3324 2217 c-2 -7 -3 -67 -2 -133 l3 -119 138 -3 137 -3 0 136 0 135
-135 0 c-103 0 -137 -3 -141 -13z"/>
<path d="M4100 1895 l0 -105 105 0 105 0 0 105 0 105 -105 0 -105 0 0 -105z"/>
<path d="M5630 3661 l0 -181 140 0 c200 0 270 20 323 91 50 68 26 189 -46 237
-40 27 -44 27 -229 30 l-188 4 0 -181z"/>
<path d="M9810 3544 c-46 -20 -77 -50 -103 -99 -19 -34 -22 -56 -22 -150 0
-134 17 -186 79 -243 87 -80 218 -65 282 31 78 119 62 342 -33 428 -52 49
-136 62 -203 33z"/>
<path d="M10895 3233 c-190 -31 -240 -61 -240 -144 0 -53 43 -95 109 -104 95
-15 215 51 230 126 8 44 8 139 -1 138 -5 -1 -48 -8 -98 -16z"/>
<path d="M8623 2250 c-121 -40 -226 -174 -254 -325 -17 -90 -6 -307 19 -375
46 -129 113 -215 203 -258 215 -104 443 1 530 244 31 86 38 306 14 407 -34
141 -103 235 -212 289 -86 42 -204 49 -300 18z"/>
<path d="M5700 2016 l0 -226 164 0 c186 0 244 12 296 63 44 43 61 81 67 147 9
96 -25 168 -100 211 -40 23 -53 24 -234 27 l-193 4 0 -226z"/>
<path d="M7010 2034 l0 -206 208 4 c189 3 211 5 247 25 79 42 105 88 105 184
0 73 -17 116 -59 152 -48 40 -90 47 -303 47 l-198 0 0 -206z"/>
</g>
</svg>
