<?xml version="1.0" standalone="no"?>
<!DOCTYPE svg PUBLIC "-//W3C//DTD SVG 20010904//EN"
 "http://www.w3.org/TR/2001/REC-SVG-20010904/DTD/svg10.dtd">
<svg version="1.0" xmlns="http://www.w3.org/2000/svg"
 width="1280.000000pt" height="800.000000pt" viewBox="0 0 1280.000000 800.000000"
 preserveAspectRatio="xMidYMid meet">

<g transform="translate(0.000000,800.000000) scale(0.100000,-0.100000)"
fill="#000000" stroke="none">
<path d="M0 4000 l0 -4000 6400 0 6400 0 0 4000 0 4000 -6400 0 -6400 0 0
-4000z m2441 221 c-1 -1394 -4 -2538 -7 -2543 -8 -12 -28 -8 -354 62 -52 12
-160 34 -240 50 -80 15 -197 40 -260 54 -63 14 -197 42 -298 62 -101 21 -190
43 -198 48 -12 10 -14 249 -15 1756 -1 960 0 1842 0 1961 l1 216 113 73 c61
40 162 105 222 145 61 40 189 122 285 182 162 101 409 260 590 380 107 70 144
92 154 89 5 -1 8 -1098 7 -2535z m206 2426 c115 -89 276 -209 353 -262 32 -22
103 -74 157 -115 54 -41 109 -82 123 -91 24 -16 25 -21 28 -133 2 -89 0 -117
-10 -121 -7 -3 -47 6 -87 20 -41 14 -76 25 -78 25 -1 0 -2 -141 0 -312 l3
-313 156 -3 155 -2 7 -49 c8 -59 6 -496 -3 -571 l-6 -55 -58 0 -57 1 2 -286 3
-285 60 -19 c33 -10 86 -27 118 -39 l58 -20 -3 -136 -3 -136 -53 -3 -53 -3 3
-52 3 -52 50 -5 50 -5 3 -242 2 -243 -40 0 -41 0 3 -56 3 -56 120 -61 c66 -34
171 -86 233 -114 l112 -53 -2 -442 -3 -443 -35 -3 c-19 -2 -39 -7 -45 -12 -5
-4 -37 -11 -70 -14 -64 -8 -223 -36 -510 -91 -518 -100 -750 -139 -765 -130
-5 3 -10 13 -10 20 0 29 -21 24 620 144 l195 36 2 553 c1 304 -2 563 -6 575
-7 17 -63 46 -227 121 -121 54 -277 123 -349 152 -196 81 -238 105 -249 143
-15 52 3 57 77 22 36 -17 68 -31 72 -31 5 0 31 -11 59 -24 28 -13 105 -47 172
-74 66 -28 145 -62 175 -75 30 -14 90 -39 134 -56 44 -18 94 -38 110 -46 17
-8 51 -23 77 -34 l47 -20 3 77 3 77 35 1 35 0 2 166 3 165 -48 -4 c-26 -2 -52
0 -59 4 -7 5 -12 52 -14 127 -3 115 -3 119 19 127 12 5 29 6 37 3 8 -4 26 -3
40 0 24 6 25 10 25 80 l0 73 -67 31 c-38 17 -88 39 -113 48 -25 10 -48 22 -52
28 -4 6 -8 144 -8 307 0 294 0 296 -22 316 -13 11 -39 28 -58 38 -19 10 -58
35 -87 56 -29 22 -57 39 -63 39 -6 0 -10 -28 -10 -70 l0 -70 -123 0 c-82 0
-127 4 -135 12 -8 8 -12 57 -12 152 l0 141 -48 26 c-26 15 -84 54 -129 88 -72
53 -83 65 -83 91 0 17 6 33 14 36 7 3 53 -21 102 -54 49 -32 143 -89 209 -127
93 -53 128 -68 157 -67 32 1 39 -4 57 -33 12 -20 41 -46 71 -62 28 -16 84 -47
123 -70 40 -23 89 -51 110 -63 l37 -20 0 266 0 266 -148 -3 c-81 -1 -153 1
-160 5 -9 5 -12 95 -12 357 0 286 -2 349 -13 349 -36 0 -45 32 -49 177 -3 141
-3 142 -32 172 -16 17 -59 51 -95 75 -174 118 -327 234 -340 257 -15 28 -10
59 11 59 7 0 55 -33 105 -73z m1121 -407 c5 -123 8 -120 -103 -120 l-95 0 0
93 c0 52 3 97 7 101 4 4 48 5 98 4 l90 -3 3 -75z m-1164 -229 c124 -58 154
-71 169 -71 13 0 16 -17 19 -101 2 -56 0 -106 -4 -112 -4 -7 -39 4 -100 32
-138 62 -136 60 -138 161 -3 128 -8 120 54 91z m1151 -11 c6 -10 -42 -114 -75
-160 -12 -16 -26 -43 -31 -60 -21 -59 -30 -30 -27 93 l3 122 35 6 c56 10 88
10 95 -1z m517 -48 l37 -7 -65 -75 c-36 -41 -82 -96 -102 -122 -20 -27 -40
-48 -44 -48 -4 0 -8 39 -9 88 0 48 -2 98 -4 112 -7 54 0 60 78 59 40 0 89 -3
109 -7z m-262 -87 c0 -8 -30 -49 -67 -92 l-68 -77 -3 37 c-2 20 -2 54 0 74 3
36 5 38 58 54 70 22 80 22 80 4z m-715 -9 c28 -7 77 -27 111 -44 l61 -31 6
-83 c4 -46 7 -109 7 -142 0 -58 0 -58 -27 -53 -36 6 -204 76 -220 91 -13 11
-27 259 -16 270 9 9 22 7 78 -8z m1535 -195 c0 -10 -18 -30 -40 -46 -22 -15
-55 -45 -74 -65 -52 -58 -56 -58 -56 0 0 49 1 52 37 66 20 9 53 27 72 40 43
29 61 30 61 5z m-410 -30 c0 -41 -11 -51 -56 -51 -30 0 -30 2 2 50 35 52 54
52 54 1z m-1616 13 l47 -7 -3 -111 -3 -111 -110 0 -110 0 -3 104 c-1 58 0 111
2 118 6 14 98 18 180 7z m1159 -56 c-25 -40 -358 -348 -377 -348 -7 0 -8 344
-1 352 3 3 91 6 196 7 154 1 189 -1 182 -11z m239 -143 c8 -8 -22 -158 -34
-172 -7 -8 -38 -13 -85 -13 l-75 0 88 94 c89 95 96 101 106 91z m-270 -127
c-2 -57 -7 -106 -11 -110 -7 -9 -230 -13 -238 -4 -9 8 229 216 248 216 3 0 4
-46 1 -102z m592 -17 c6 -9 -57 -70 -140 -134 l-49 -39 -3 68 c-5 115 -6 114
98 114 49 0 91 -4 94 -9z m-846 -363 l3 -98 -101 0 -100 0 0 93 c0 52 3 97 7
101 4 4 48 5 98 4 l90 -3 3 -97z m562 70 c0 -12 -58 -209 -63 -214 -2 -2 -21
28 -42 68 -20 40 -48 87 -61 105 -13 17 -24 35 -24 40 0 4 43 8 95 8 52 0 95
-3 95 -7z m335 3 c6 -10 -25 -31 -44 -31 -6 0 -11 9 -11 20 0 15 7 20 24 20
14 0 27 -4 31 -9z m-625 -140 c0 -5 36 -45 81 -90 l81 -82 -88 3 -89 3 -3 88
c-2 55 1 87 8 87 5 0 10 -4 10 -9z m674 -10 c3 -4 24 -11 46 -15 23 -3 38 -11
35 -16 -11 -18 -236 -163 -242 -156 -9 8 10 47 62 127 35 55 50 69 69 69 14 0
27 -4 30 -9z m1764 -143 l3 -118 -106 0 -105 0 0 114 c0 82 3 116 13 119 6 2
53 4 102 3 l90 -1 3 -117z m327 -3 l0 -120 -85 -3 c-137 -5 -130 -11 -130 122
0 62 3 116 7 120 4 4 52 5 107 4 l101 -3 0 -120z m1585 -226 l0 -339 168 169
167 170 148 7 c105 4 147 3 147 -5 0 -6 -75 -88 -167 -182 -163 -166 -167
-171 -153 -194 57 -92 120 -190 162 -250 62 -88 187 -289 183 -293 -6 -6 -284
-4 -294 3 -6 3 -40 56 -77 118 -71 117 -162 257 -168 257 -2 0 -31 -28 -64
-62 l-60 -62 6 -126 5 -127 -69 -6 c-95 -9 -182 -9 -188 1 -3 4 -6 289 -7 633
l-2 624 59 5 c32 3 92 4 132 2 l72 -4 0 -339z m1028 128 l2 -217 50 34 c76 52
111 61 245 61 114 0 123 -2 174 -30 124 -68 189 -160 217 -302 35 -182 10
-315 -85 -454 -60 -90 -138 -137 -259 -159 -103 -18 -248 24 -319 92 l-33 32
0 -52 c0 -47 -2 -52 -26 -58 -15 -4 -70 -3 -123 2 l-96 9 -3 627 -2 627 107 4
c60 2 117 3 128 3 19 -1 20 -9 23 -219z m-3833 138 c62 -17 168 -66 197 -92
33 -29 80 -112 94 -165 7 -29 14 -94 14 -145 0 -85 -3 -96 -34 -156 -50 -96
-81 -132 -141 -162 l-54 -28 19 -27 c11 -16 20 -31 20 -34 0 -3 42 -72 93
-153 98 -154 127 -205 127 -222 0 -10 -145 -13 -238 -4 l-54 5 -103 156 c-56
86 -110 171 -118 188 -21 40 -41 45 -155 37 l-93 -6 3 -188 c3 -181 2 -188
-17 -192 -43 -10 -227 -8 -239 2 -10 9 -12 137 -10 603 1 326 3 596 3 600 1 3
142 5 314 3 248 -3 324 -7 372 -20z m-1176 -54 c11 -7 9 -12 -10 -23 -13 -8
-36 -22 -51 -31 -15 -10 -30 -17 -33 -17 -7 0 -6 45 1 64 7 18 69 22 93 7z
m-1654 -115 l60 -33 3 -106 c1 -59 0 -107 -3 -107 -3 0 -39 19 -80 42 l-75 42
0 98 c0 115 1 116 95 64z m1017 23 c7 -22 -24 -363 -39 -428 -6 -23 -6 -23
-106 -16 -55 4 -106 9 -114 12 -10 4 -13 49 -13 218 l0 214 43 4 c97 9 225 7
229 -4z m309 -70 c38 -12 69 -26 69 -33 0 -16 -167 -159 -173 -149 -5 9 11
170 18 191 6 16 5 16 86 -9z m3637 -39 c114 -19 196 -67 243 -145 33 -53 26
-66 -66 -128 l-86 -57 -43 40 c-113 104 -219 102 -314 -5 -97 -110 -94 -258 7
-356 95 -91 222 -88 322 8 l36 34 59 -37 c64 -40 114 -82 114 -97 0 -5 -30
-40 -66 -77 -90 -94 -154 -122 -289 -128 -228 -10 -358 68 -465 281 -43 86
-44 91 -45 185 0 82 4 108 28 172 52 137 110 207 226 269 32 17 76 35 97 40
54 12 167 13 242 1z m-1397 -10 l38 0 3 -304 c3 -290 4 -306 24 -332 40 -54
70 -69 135 -67 81 2 143 39 177 105 24 47 25 52 26 325 l1 278 33 -1 c17 0 76
-1 130 -2 l98 -2 -4 -457 c-3 -323 -8 -460 -16 -466 -6 -4 -60 -6 -121 -5
l-110 3 -3 63 c-2 34 -6 62 -10 62 -4 -1 -27 -21 -52 -46 -25 -24 -65 -54 -89
-66 -51 -25 -176 -39 -233 -27 -84 20 -166 77 -198 139 -44 85 -53 160 -58
477 -2 167 -1 310 2 319 6 15 18 16 98 10 50 -3 108 -6 129 -6z m4526 -11 c72
-28 144 -94 180 -168 l28 -56 7 -320 c4 -176 6 -330 3 -342 -5 -20 -12 -22
-103 -25 -156 -5 -152 -7 -152 59 l0 57 -44 -47 c-85 -88 -262 -115 -381 -58
-113 53 -154 117 -155 235 0 113 31 191 91 221 83 44 257 73 445 75 l31 0 -8
49 c-11 69 -33 107 -70 120 -50 17 -148 13 -235 -10 -136 -37 -132 -37 -150 7
-20 48 -47 135 -42 139 13 11 103 52 148 66 42 14 90 18 202 18 127 1 155 -2
205 -20z m553 11 l109 0 3 -292 c3 -274 4 -296 24 -332 33 -63 64 -81 142 -81
81 0 132 27 162 85 24 47 44 213 35 282 -4 27 -4 114 0 194 l7 145 126 -3 126
-3 3 -452 c2 -337 0 -454 -9 -459 -6 -4 -59 -9 -118 -11 -98 -4 -107 -3 -125
17 -11 12 -19 24 -17 26 1 2 2 17 2 33 l0 29 -30 -28 c-75 -70 -231 -114 -323
-90 -136 34 -211 106 -246 236 -12 44 -24 698 -13 709 3 3 12 3 20 0 7 -3 63
-5 122 -5z m-6980 -260 c0 -33 -4 -60 -9 -60 -6 0 -44 16 -86 34 -120 55 -114
86 18 86 l77 0 0 -60z m-220 -90 l0 -100 -100 0 -100 0 0 100 0 100 100 0 100
0 0 -100z m-982 37 c9 -6 12 -47 12 -146 0 -164 13 -151 -156 -151 -83 0 -114
4 -123 14 -8 9 -11 57 -9 147 l3 134 110 5 c142 6 148 6 163 -3z m741 -6 c12
-8 10 -16 -11 -48 -14 -22 -39 -66 -56 -99 -16 -32 -39 -70 -50 -84 l-20 -24
-5 49 c-5 43 -4 152 1 192 3 18 117 29 141 14z m671 -112 c0 -15 -8 -19 -40
-19 -47 0 -50 10 -14 39 30 23 54 14 54 -20z m-1777 -157 l27 -12 0 -121 0
-121 -28 7 c-15 3 -61 18 -102 33 l-75 28 -3 109 c-1 60 -1 114 2 121 5 12 91
-10 179 -44z m1267 -42 c-16 -29 -319 -360 -331 -360 -6 0 -9 46 -7 122 l3
121 80 35 c44 19 114 50 155 68 89 40 116 44 100 14z m223 -66 c20 -4 37 -9
37 -13 0 -6 -229 -111 -243 -111 -3 0 2 21 12 48 10 26 21 55 24 65 5 14 18
17 69 17 35 0 80 -3 101 -6z m187 -159 l0 -55 -94 0 c-106 0 -115 6 -101 76
l6 34 94 0 95 0 0 -55z m-1119 -265 c-2 -74 -5 -137 -8 -140 -5 -6 -235 0
-245 6 -10 6 -11 258 -1 268 4 3 63 5 132 4 l126 -3 -4 -135z m592 -57 l-78
-86 -7 39 c-4 21 -7 60 -7 86 -1 54 0 55 100 50 l69 -4 -77 -85z m290 -2 c23
-15 63 -40 90 -55 l47 -27 0 -64 c0 -43 -4 -65 -12 -65 -15 0 -73 44 -130 99
-44 42 -48 49 -48 93 0 26 3 48 6 48 3 0 24 -13 47 -29z m-180 -48 c-4 -21 -8
-118 -8 -216 0 -115 -4 -177 -10 -177 -6 0 -25 12 -42 28 l-32 27 6 152 6 152
32 36 c43 47 58 46 48 -2z m-298 -178 l0 -59 -36 -2 c-19 -2 -40 0 -46 4 -14
9 -25 83 -15 98 9 14 39 23 72 21 24 -2 25 -5 25 -62z m4497 19 c135 -43 212
-87 292 -168 88 -89 128 -155 160 -270 57 -197 18 -472 -93 -652 -82 -133
-159 -190 -341 -250 -73 -24 -100 -28 -190 -27 -125 1 -251 28 -341 73 -36 19
-90 60 -135 104 -61 60 -82 90 -118 167 -131 276 -86 647 103 851 94 102 173
145 331 178 127 28 231 26 332 -6z m-5563 -13 c31 -11 72 -22 93 -26 l36 -6
-5 -117 c-3 -64 -7 -119 -9 -121 -7 -8 -112 20 -155 42 -24 12 -44 28 -43 35
1 6 2 57 3 112 1 68 5 100 12 100 7 0 37 -9 68 -19z m2872 -10 c64 -15 178
-82 219 -128 21 -24 52 -77 69 -118 26 -61 31 -87 31 -152 0 -222 -75 -359
-239 -436 -94 -44 -176 -59 -311 -56 -47 1 -115 1 -151 0 l-66 -1 4 -210 3
-210 -140 0 -140 0 -2 343 c-3 416 3 969 9 980 7 11 665 0 714 -12z m1342 -5
c50 -11 85 -27 130 -60 126 -90 149 -137 155 -316 4 -119 3 -129 -24 -199 -23
-58 -40 -83 -81 -121 -29 -26 -73 -58 -98 -70 -25 -12 -45 -23 -45 -26 0 -8
108 -187 175 -289 83 -125 131 -208 124 -214 -2 -2 -72 -5 -155 -8 l-151 -5
-20 29 c-11 15 -51 84 -88 153 -38 69 -88 153 -112 188 -24 35 -43 70 -43 78
0 11 -25 14 -140 14 l-140 0 -2 -227 -3 -228 -135 0 -135 0 -3 650 c-1 358 0
655 2 662 8 19 698 9 789 -11z m-3808 -236 c4 -6 7 -65 8 -133 l2 -122 -128
-3 -127 -3 0 28 c0 15 -2 73 -5 127 -2 55 -1 104 1 108 8 12 242 10 249 -2z
m9205 -2094 c28 -70 75 -118 150 -153 33 -16 60 -31 60 -34 0 -3 -19 -12 -42
-20 -56 -18 -148 -109 -174 -171 -10 -27 -21 -48 -24 -48 -4 0 -11 15 -18 34
-31 84 -123 176 -193 191 -40 9 -36 19 16 39 67 26 138 95 165 161 12 30 26
55 30 55 4 0 18 -24 30 -54z"/>
<path d="M2003 5523 l-163 -56 4 -228 c1 -126 5 -231 7 -234 3 -2 79 20 170
49 l164 54 0 233 c-1 139 -5 234 -10 235 -6 1 -83 -23 -172 -53z"/>
<path d="M1610 5400 c-8 -5 -75 -30 -147 -56 l-133 -47 0 -223 c0 -123 4 -224
8 -224 4 0 60 20 124 44 63 24 129 47 147 51 l31 7 0 229 c0 126 -3 229 -7
229 -5 0 -15 -5 -23 -10z"/>
<path d="M2007 4731 c-81 -21 -152 -42 -157 -47 -7 -7 -9 -103 -8 -255 l3
-244 55 3 c30 1 107 13 170 25 l115 23 1 64 c4 161 -9 470 -20 469 -6 -1 -78
-18 -159 -38z"/>
<path d="M1520 4610 c-52 -16 -115 -35 -140 -43 l-45 -14 -3 -232 c-1 -127 1
-231 5 -231 7 0 224 43 281 55 l22 5 0 245 c0 190 -3 245 -12 244 -7 0 -56
-14 -108 -29z"/>
<path d="M1985 3865 c-55 -7 -110 -14 -122 -14 l-23 -1 0 -247 0 -246 113 6
c61 4 138 7 170 7 l57 0 0 255 0 255 -47 -1 c-27 -1 -93 -7 -148 -14z"/>
<path d="M1490 3803 c-30 -1 -79 -5 -107 -9 l-53 -5 0 -231 0 -231 152 6 c83
4 153 9 156 11 5 6 7 150 4 324 l-2 142 -47 -2 c-27 -1 -73 -3 -103 -5z"/>
<path d="M1325 2799 c4 -123 9 -226 12 -228 5 -6 295 -22 300 -17 4 4 4 448 0
452 -1 1 -73 5 -160 9 l-159 7 7 -223z"/>
<path d="M1840 2768 l0 -238 23 -5 c18 -4 278 -25 313 -25 8 0 11 68 10 244 0
134 -3 247 -6 249 -3 3 -80 7 -173 9 l-167 3 0 -237z"/>
<path d="M3070 6160 l0 -80 38 -18 c49 -25 142 -55 148 -49 3 3 3 29 -1 59 -6
51 -9 55 -65 95 -32 23 -72 49 -89 57 l-31 17 0 -81z"/>
<path d="M3420 2893 c-2 -197 1 -1007 3 -1009 2 -3 200 35 362 68 l110 23 0
393 0 393 -98 40 c-54 22 -108 46 -120 54 -20 13 -244 115 -253 115 -2 0 -4
-35 -4 -77z m298 -355 l3 -108 -101 0 -100 0 0 110 0 111 98 -3 97 -3 3 -107z"/>
<path d="M9505 4281 c-51 -13 -92 -39 -124 -78 -48 -58 -61 -94 -61 -170 0
-151 94 -253 234 -253 95 0 146 33 194 125 36 68 37 168 2 237 -23 48 -68 100
-105 124 -26 16 -102 25 -140 15z"/>
<path d="M5070 4355 l0 -186 168 3 c162 4 168 5 210 32 60 38 86 98 79 179 -6
70 -27 104 -83 132 -33 17 -63 20 -206 23 l-168 3 0 -186z"/>
<path d="M10464 3955 c-67 -29 -91 -94 -59 -155 20 -40 63 -60 125 -60 102 0
180 68 188 164 4 49 2 54 -19 59 -43 12 -203 6 -235 -8z"/>
<path d="M7970 2876 c-30 -7 -73 -22 -95 -33 -59 -31 -131 -113 -167 -191 -28
-60 -32 -80 -36 -182 -5 -130 6 -195 50 -287 34 -74 105 -139 192 -179 52 -23
67 -26 140 -22 157 9 253 81 314 236 56 141 61 272 17 416 -53 173 -239 282
-415 242z"/>
<path d="M5143 2863 c-50 -4 -53 -6 -58 -36 -3 -18 -5 -114 -3 -214 l3 -183
165 0 c162 0 166 1 212 28 57 33 105 92 114 139 11 59 -1 130 -29 173 -32 47
-63 69 -114 80 -49 11 -223 18 -290 13z"/>
<path d="M6364 2861 c-2 -2 -4 -94 -4 -204 l0 -199 178 7 c97 4 193 11 212 17
91 27 137 102 127 207 -7 85 -48 141 -117 161 -34 9 -387 19 -396 11z"/>
</g>
</svg>
